<svg width="17" height="17" viewBox="0 0 17 17" fill="none" xmlns="http://www.w3.org/2000/svg">
<g clip-path="url(#clip0_198_242)">
<path d="M11.1562 9.03125C11.1562 9.73573 10.8764 10.4114 10.3783 10.9095C9.88011 11.4076 9.20448 11.6875 8.5 11.6875C7.79552 11.6875 7.11989 11.4076 6.62175 10.9095C6.1236 10.4114 5.84375 9.73573 5.84375 9.03125C5.84375 8.32677 6.1236 7.65114 6.62175 7.153C7.11989 6.65485 7.79552 6.375 8.5 6.375C9.20448 6.375 9.88011 6.65485 10.3783 7.153C10.8764 7.65114 11.1562 8.32677 11.1562 9.03125Z" fill="white"/>
<path d="M2.125 4.25C1.56141 4.25 1.02091 4.47388 0.622398 4.8724C0.223883 5.27091 0 5.81141 0 6.375L0 12.75C0 13.3136 0.223883 13.8541 0.622398 14.2526C1.02091 14.6511 1.56141 14.875 2.125 14.875H14.875C15.4386 14.875 15.9791 14.6511 16.3776 14.2526C16.7761 13.8541 17 13.3136 17 12.75V6.375C17 5.81141 16.7761 5.27091 16.3776 4.8724C15.9791 4.47388 15.4386 4.25 14.875 4.25H13.6298C13.0662 4.24988 12.5258 4.02592 12.1274 3.62738L11.2476 2.74762C10.8492 2.34908 10.3088 2.12512 9.74525 2.125H7.25475C6.69121 2.12512 6.1508 2.34908 5.75238 2.74762L4.87262 3.62738C4.4742 4.02592 3.93379 4.24988 3.37025 4.25H2.125ZM2.65625 6.375C2.51535 6.375 2.38023 6.31903 2.2806 6.2194C2.18097 6.11977 2.125 5.98465 2.125 5.84375C2.125 5.70285 2.18097 5.56773 2.2806 5.4681C2.38023 5.36847 2.51535 5.3125 2.65625 5.3125C2.79715 5.3125 2.93227 5.36847 3.0319 5.4681C3.13153 5.56773 3.1875 5.70285 3.1875 5.84375C3.1875 5.98465 3.13153 6.11977 3.0319 6.2194C2.93227 6.31903 2.79715 6.375 2.65625 6.375ZM12.2188 9.03125C12.2188 10.0175 11.827 10.9634 11.1296 11.6608C10.4322 12.3582 9.48627 12.75 8.5 12.75C7.51373 12.75 6.56785 12.3582 5.87045 11.6608C5.17305 10.9634 4.78125 10.0175 4.78125 9.03125C4.78125 8.04498 5.17305 7.0991 5.87045 6.4017C6.56785 5.7043 7.51373 5.3125 8.5 5.3125C9.48627 5.3125 10.4322 5.7043 11.1296 6.4017C11.827 7.0991 12.2188 8.04498 12.2188 9.03125Z" fill="white"/>
</g>
<defs>
<clipPath id="clip0_198_242">
<rect width="17" height="17" fill="white"/>
</clipPath>
</defs>
</svg>
