<svg width="22" height="22" viewBox="0 0 22 22" fill="none" xmlns="http://www.w3.org/2000/svg">
<path d="M10.9999 13.6663C11.7072 13.6663 12.3854 13.3854 12.8855 12.8853C13.3856 12.3852 13.6666 11.7069 13.6666 10.9997C13.6666 10.2924 13.3856 9.61415 12.8855 9.11406C12.3854 8.61396 11.7072 8.33301 10.9999 8.33301C10.2927 8.33301 9.6144 8.61396 9.1143 9.11406C8.6142 9.61415 8.33325 10.2924 8.33325 10.9997C8.33325 11.7069 8.6142 12.3852 9.1143 12.8853C9.6144 13.3854 10.2927 13.6663 10.9999 13.6663Z" stroke="white" stroke-width="1.5" stroke-miterlimit="10" stroke-linecap="round" stroke-linejoin="round"/>
<path d="M2.11108 11.7817V10.2173C2.11108 9.29284 2.86664 8.5284 3.79997 8.5284C5.40886 8.5284 6.06664 7.39062 5.25775 5.99507C4.79553 5.19507 5.07108 4.15507 5.87997 3.69284L7.41775 2.81284C8.11997 2.39507 9.02664 2.64395 9.44442 3.34618L9.54219 3.51507C10.3422 4.91062 11.6578 4.91062 12.4666 3.51507L12.5644 3.34618C12.9822 2.64395 13.8889 2.39507 14.5911 2.81284L16.1289 3.69284C16.9378 4.15507 17.2133 5.19507 16.7511 5.99507C15.9422 7.39062 16.6 8.5284 18.2089 8.5284C19.1333 8.5284 19.8978 9.28395 19.8978 10.2173V11.7817C19.8978 12.7062 19.1422 13.4706 18.2089 13.4706C16.6 13.4706 15.9422 14.6084 16.7511 16.004C17.2133 16.8128 16.9378 17.844 16.1289 18.3062L14.5911 19.1862C13.8889 19.604 12.9822 19.3551 12.5644 18.6528L12.4666 18.484C11.6666 17.0884 10.3511 17.0884 9.54219 18.484L9.44442 18.6528C9.02664 19.3551 8.11997 19.604 7.41775 19.1862L5.87997 18.3062C5.49251 18.0831 5.20938 17.7154 5.09272 17.2838C4.97607 16.8521 5.03542 16.3919 5.25775 16.004C6.06664 14.6084 5.40886 13.4706 3.79997 13.4706C2.86664 13.4706 2.11108 12.7062 2.11108 11.7817Z" stroke="white" stroke-width="1.5" stroke-miterlimit="10" stroke-linecap="round" stroke-linejoin="round"/>
</svg>
