<svg width="24" height="24" viewBox="0 0 24 24" fill="none" xmlns="http://www.w3.org/2000/svg">
<path d="M6.19 7.06C6.45 7.02 6.72 7 7 7H17C17.26 7 17.51 7.01 17.75 7.05C20.33 7.35 22 9.26 22 12V17C22 20 20 22 17 22H7.63C7.94 21.74 8.21 21.42 8.42 21.06C8.79 20.46 9 19.75 9 19C9 16.79 7.21 15 5 15C3.8 15 2.73 15.53 2 16.36V12C2 11.13 2.17 10.34 2.48 9.67" stroke="#2B2A29" stroke-width="1.5" stroke-linecap="round" stroke-linejoin="round"/>
<path d="M17.751 7.04996C17.511 7.00996 17.261 6.99996 17.001 6.99996H7.00104C6.72104 6.99996 6.45104 7.01996 6.19104 7.05996C6.33104 6.77996 6.53104 6.51996 6.77104 6.27996L10.021 3.01996C10.6811 2.36654 11.5723 2 12.501 2C13.4298 2 14.321 2.36654 14.981 3.01996L16.731 4.78996C17.371 5.41996 17.711 6.21996 17.751 7.04996Z" stroke="#2B2A29" stroke-width="1.5" stroke-linecap="round" stroke-linejoin="round"/>
<path d="M6.49201 18.98H3.51201M5.00001 17.52V20.51M9.00001 19C9.00001 19.75 8.79001 20.46 8.42001 21.06C8.06748 21.6525 7.56672 22.143 6.96705 22.4831C6.36737 22.8233 5.68944 23.0014 5.00001 23C4.31057 23.0014 3.63265 22.8233 3.03297 22.4831C2.43329 22.143 1.93254 21.6525 1.58001 21.06C1.19935 20.4404 0.998531 19.7272 1.00001 19C1.00001 16.79 2.79001 15 5.00001 15C7.21001 15 9.00001 16.79 9.00001 19Z" stroke="#2B2A29" stroke-width="1.5" stroke-miterlimit="10" stroke-linecap="round" stroke-linejoin="round"/>
<path d="M22 12.5H19C17.9 12.5 17 13.4 17 14.5C17 15.6 17.9 16.5 19 16.5H22" stroke="#2B2A29" stroke-width="1.5" stroke-linecap="round" stroke-linejoin="round"/>
</svg>
