<svg width="18" height="16" viewBox="0 0 18 16" fill="none" xmlns="http://www.w3.org/2000/svg">
<path d="M6.83988 3.16C6.83988 4.35 7.80988 5.32 8.99988 5.32C10.1899 5.32 11.1599 4.35 11.1599 3.16C11.1599 1.97 10.1899 1 8.99988 1M3.78988 15C4.97988 15 5.94988 14.03 5.94988 12.84C5.94988 11.65 4.97988 10.68 3.78988 10.68C2.59988 10.68 1.62988 11.65 1.62988 12.84C1.62988 14.03 2.58988 15 3.78988 15ZM14.2099 15C15.3999 15 16.3699 14.03 16.3699 12.84C16.3699 11.65 15.3999 10.68 14.2099 10.68C13.0199 10.68 12.0499 11.65 12.0499 12.84C12.0499 14.03 13.0199 15 14.2099 15Z" stroke="#2B2A29" stroke-width="1.5" stroke-linecap="round" stroke-linejoin="round"/>
</svg>
