<svg width="24" height="24" viewBox="0 0 24 24" fill="none" xmlns="http://www.w3.org/2000/svg">
<path d="M5.60009 17.759C4.60009 16.899 3.69009 15.839 2.89009 14.589C1.99009 13.179 1.99009 10.809 2.89009 9.39898C4.07009 7.54898 5.51009 6.09898 7.12009 5.12898M17.8201 5.76998C16.0701 4.44998 14.0701 3.72998 12.0001 3.72998M8.42209 19.53C9.56209 20.01 10.7721 20.27 12.0021 20.27C15.5321 20.27 18.8221 18.19 21.1121 14.59C22.0121 13.18 22.0121 10.81 21.1121 9.39998C20.7821 8.87998 20.4221 8.38998 20.0521 7.92998M14.5321 9.47198L9.47209 14.532C9.13984 14.1997 8.87629 13.8053 8.69648 13.3712C8.51667 12.9371 8.42413 12.4718 8.42413 12.002C8.42413 11.5321 8.51667 11.0669 8.69648 10.6328C8.87629 10.1987 9.13984 9.80422 9.47209 9.47198C9.80433 9.13974 10.1988 8.87619 10.6329 8.69638C11.067 8.51657 11.5322 8.42402 12.0021 8.42402C12.472 8.42402 12.9372 8.51657 13.3713 8.69638C13.8054 8.87619 14.1998 9.13974 14.5321 9.47198Z" stroke="#2B2A29" stroke-width="1.5" stroke-linecap="round" stroke-linejoin="round"/>
<path d="M15.511 12.7C15.3755 13.3976 15.0347 14.0387 14.5322 14.5412C14.0297 15.0437 13.3886 15.3845 12.691 15.52M9.47 14.531L2 22.001M22.001 2L14.531 9.47" stroke="#2B2A29" stroke-width="1.5" stroke-linecap="round" stroke-linejoin="round"/>
</svg>
