<svg width="25" height="24" viewBox="0 0 25 24" fill="none" xmlns="http://www.w3.org/2000/svg">
<path d="M12.6523 21.9979C16.2423 21.9979 19.1523 19.4679 19.1523 16.3479V12.6479C19.1523 15.7679 16.2423 17.9979 12.6523 17.9979C9.06234 17.9979 6.15234 15.7679 6.15234 12.6479V16.3479C6.15234 18.0579 7.02234 19.5879 8.40234 20.6179" stroke="#2B2A29" stroke-width="1.5" stroke-linecap="round" stroke-linejoin="round"/>
<path d="M19.1523 7.65C19.1523 8.56 18.9023 9.4 18.4623 10.12C17.3923 11.88 15.1923 13 12.6523 13C10.1123 13 7.91234 11.88 6.84234 10.12C6.40234 9.4 6.15234 8.56 6.15234 7.65C6.15234 6.09 6.88234 4.68 8.05234 3.66C9.23234 2.63 10.8523 2 12.6523 2C14.4523 2 16.0723 2.63 17.2523 3.65C18.4223 4.68 19.1523 6.09 19.1523 7.65Z" stroke="#2B2A29" stroke-width="1.5" stroke-linecap="round" stroke-linejoin="round"/>
<path d="M19.1523 7.65V12.65C19.1523 15.77 16.2423 18 12.6523 18C9.06234 18 6.15234 15.77 6.15234 12.65V7.65C6.15234 4.53 9.06234 2 12.6523 2C14.4523 2 16.0723 2.63 17.2523 3.65C18.4223 4.68 19.1523 6.09 19.1523 7.65Z" stroke="#2B2A29" stroke-width="1.5" stroke-linecap="round" stroke-linejoin="round"/>
</svg>
