<svg width="32" height="32" viewBox="0 0 32 32" fill="none" xmlns="http://www.w3.org/2000/svg">
<rect width="32" height="32" rx="7" fill="#2B2A29"/>
<path d="M10.6667 14.2227H24.889" stroke="white" stroke-width="1.5" stroke-miterlimit="10" stroke-linecap="round" stroke-linejoin="round"/>
<path d="M15.5982 23.5573H11.056C7.90046 23.5573 7.10046 22.7751 7.10046 19.6551V12.3484C7.10046 9.52174 7.75824 8.61508 10.2382 8.47286C10.4871 8.46397 10.7627 8.45508 11.056 8.45508H20.9316C24.0871 8.45508 24.8871 9.2373 24.8871 12.3573V16.2773" stroke="white" stroke-width="1.5" stroke-linecap="round" stroke-linejoin="round"/>
<path d="M10.6667 19.5571H14.2223M24.889 21.3349C24.889 22.0015 24.7023 22.6326 24.3734 23.166C24.0601 23.6926 23.6149 24.1286 23.0819 24.431C22.5488 24.7333 21.9462 24.8917 21.3334 24.8904C20.7206 24.8917 20.118 24.7333 19.5849 24.431C19.0519 24.1286 18.6068 23.6926 18.2934 23.166C17.9551 22.6152 17.7765 21.9812 17.7779 21.3349C17.7779 19.3704 19.369 17.7793 21.3334 17.7793C23.2979 17.7793 24.889 19.3704 24.889 21.3349Z" stroke="white" stroke-width="1.5" stroke-miterlimit="10" stroke-linecap="round" stroke-linejoin="round"/>
<path d="M19.9476 21.334L20.8276 22.214L22.721 20.4629" stroke="white" stroke-width="1.5" stroke-linecap="round" stroke-linejoin="round"/>
</svg>
