<svg width="22" height="22" viewBox="0 0 22 22" fill="none" xmlns="http://www.w3.org/2000/svg">
<path d="M15.4444 16.7154H11.8889L7.93331 19.3465C7.79981 19.4355 7.64467 19.4866 7.48442 19.4943C7.32417 19.502 7.16483 19.4661 7.0234 19.3904C6.88196 19.3146 6.76374 19.2019 6.68134 19.0643C6.59895 18.9266 6.55546 18.7692 6.55553 18.6087V16.7154C3.88886 16.7154 2.11108 14.9376 2.11108 12.2709V6.93761C2.11108 4.27094 3.88886 2.49316 6.55553 2.49316H15.4444C18.1111 2.49316 19.8889 4.27094 19.8889 6.93761V12.2709C19.8889 14.9376 18.1111 16.7154 15.4444 16.7154Z" stroke="white" stroke-width="1.5" stroke-miterlimit="10" stroke-linecap="round" stroke-linejoin="round"/>
<path d="M11 10.4307V10.244C11 9.63955 11.3733 9.31955 11.7466 9.06177C12.1111 8.81289 12.4755 8.49289 12.4755 7.90622C12.4755 7.08844 11.8177 6.43066 11 6.43066C10.1822 6.43066 9.52441 7.08844 9.52441 7.90622M10.9955 12.5551H11.0044" stroke="white" stroke-width="1.5" stroke-linecap="round" stroke-linejoin="round"/>
</svg>
