<svg width="24" height="24" viewBox="0 0 24 24" fill="none" xmlns="http://www.w3.org/2000/svg">
<path d="M12.9 2.51814L12.87 2.58814L9.96995 9.31814H7.11995C6.43995 9.31814 5.78995 9.45814 5.19995 9.70814L6.94995 5.52814L6.98995 5.42814L7.05995 5.26814C7.07995 5.20814 7.09995 5.14814 7.12995 5.09814C8.43995 2.06814 9.91995 1.37814 12.9 2.51814Z" stroke="white" stroke-width="1.5" stroke-linecap="round" stroke-linejoin="round"/>
<path d="M18.289 9.51953C17.839 9.37953 17.359 9.31953 16.879 9.31953H9.96899L12.869 2.58953L12.899 2.51953C13.049 2.56953 13.189 2.63953 13.339 2.69953L15.549 3.62953C16.779 4.13953 17.639 4.66953 18.159 5.30953C18.259 5.42953 18.339 5.53953 18.409 5.66953C18.499 5.80953 18.569 5.94953 18.609 6.09953C18.649 6.18953 18.679 6.27953 18.699 6.35953C18.969 7.19953 18.809 8.22953 18.289 9.51953Z" stroke="white" stroke-width="1.5" stroke-linecap="round" stroke-linejoin="round"/>
<path d="M12 22.0003H8.1C7.86 22.0003 7.62 21.9803 7.39 21.9503C4.21 21.7403 2.51 20.0403 2.3 16.8603C2.27 16.6303 2.25 16.3903 2.25 16.1503V14.2003C2.25 12.1903 3.47 10.4603 5.21 9.71031C5.81 9.46031 6.45 9.32031 7.13 9.32031H16.89C17.38 9.32031 17.86 9.39031 18.3 9.52031C20.3 10.1203 21.76 11.9903 21.76 14.1903V16.1403C21.76 16.3403 21.75 16.5403 21.74 16.7403C21.55 20.2403 19.6 22.0003 15.9 22.0003" stroke="white" stroke-width="1.5" stroke-linecap="round" stroke-linejoin="round"/>
<path d="M6.94804 5.53125L5.19804 9.71125C4.32015 10.0889 3.57204 10.7153 3.04603 11.5132C2.52003 12.3111 2.23914 13.2456 2.23804 14.2013V11.2712C2.23804 8.43125 4.25804 6.06125 6.94804 5.53125ZM21.76 11.2723V14.2022C21.76 12.0022 20.3 10.1322 18.3 9.53225C18.82 8.23225 18.97 7.21225 18.72 6.36225C18.7 6.27225 18.67 6.18225 18.63 6.10225C20.49 7.06225 21.76 9.03225 21.76 11.2723Z" stroke="white" stroke-width="1.5" stroke-linecap="round" stroke-linejoin="round"/>
</svg>
