<svg width="24" height="24" viewBox="0 0 24 24" fill="none" xmlns="http://www.w3.org/2000/svg">
<path d="M8.672 14.33C8.672 15.62 9.662 16.66 10.892 16.66H13.402C14.472 16.66 15.342 15.75 15.342 14.63C15.342 13.41 14.812 12.98 14.022 12.7L9.992 11.3C9.202 11.02 8.672 10.59 8.672 9.37C8.672 8.25 9.542 7.34 10.612 7.34H13.122C14.352 7.34 15.342 8.38 15.342 9.67M12 6V18" stroke="#2B2A29" stroke-width="1.5" stroke-linecap="round" stroke-linejoin="round"/>
<path d="M4 6C2.75 7.67 2 9.75 2 12C2 17.52 6.48 22 12 22C17.52 22 22 17.52 22 12C22 6.48 17.52 2 12 2C10.57 2 9.2 2.3 7.97 2.85" stroke="#2B2A29" stroke-width="1.5" stroke-linecap="round" stroke-linejoin="round"/>
</svg>
