<svg width="32" height="32" viewBox="0 0 32 32" fill="none" xmlns="http://www.w3.org/2000/svg">
<rect width="32" height="32" rx="7" fill="#2B2A29"/>
<path d="M19.9201 8.88975C21.6445 8.88975 23.0312 10.2853 23.0312 12.0009C23.0312 13.6809 21.6978 15.0497 20.0356 15.112C19.9588 15.1031 19.8813 15.1031 19.8045 15.112M21.6356 23.112C22.2756 22.9786 22.8801 22.7209 23.3778 22.3386C24.7645 21.2986 24.7645 19.5831 23.3778 18.5431C22.889 18.1697 22.2934 17.9209 21.6623 17.7786M13.4756 14.9964C13.3867 14.9875 13.2801 14.9875 13.1823 14.9964C12.162 14.9618 11.1953 14.5314 10.4869 13.7964C9.7784 13.0614 9.38384 12.0795 9.38674 11.0586C9.38674 8.88086 11.1467 7.11197 13.3334 7.11197C14.3789 7.09311 15.3892 7.49036 16.1418 8.21634C16.8944 8.94231 17.3279 9.93754 17.3467 10.9831C17.3656 12.0286 16.9683 13.0388 16.2424 13.7915C15.5164 14.5441 14.5212 14.9776 13.4756 14.9964ZM9.03118 18.2764C6.88007 19.7164 6.88007 22.0631 9.03118 23.4942C11.4756 25.1297 15.4845 25.1297 17.929 23.4942C20.0801 22.0542 20.0801 19.7075 17.929 18.2764C15.4934 16.6497 11.4845 16.6497 9.03118 18.2764Z" stroke="white" stroke-width="1.5" stroke-linecap="round" stroke-linejoin="round"/>
</svg>
