<svg width="25" height="24" viewBox="0 0 25 24" fill="none" xmlns="http://www.w3.org/2000/svg">
<path d="M10.457 13.748C10.457 14.718 11.207 15.498 12.127 15.498H14.007C14.807 15.498 15.457 14.818 15.457 13.968C15.457 13.058 15.057 12.728 14.467 12.518L11.457 11.468C10.867 11.258 10.467 10.938 10.467 10.018C10.467 9.178 11.117 8.488 11.917 8.488H13.797C14.717 8.488 15.467 9.268 15.467 10.238M12.957 7.5V16.5M17.957 3V7M17.957 7H21.957M17.957 7L22.957 2" stroke="#2B2A29" stroke-width="1.5" stroke-linecap="round" stroke-linejoin="round"/>
<path d="M12.957 2C7.43703 2 2.95703 6.48 2.95703 12C2.95703 15.94 5.23703 19.35 8.55703 20.98M22.957 12C22.957 17.52 18.477 22 12.957 22" stroke="#2B2A29" stroke-width="1.5" stroke-linecap="round" stroke-linejoin="round"/>
</svg>
